# xmcd
#
# Track frame offsets:
#	150
#	10540
#	21737
#	41192
#	52087
#	66097
#	78052
#	89437
#	100465
#	111212
#	124722
#	140460
#
# Disc length: 2061 seconds
#
# Revision: 0
# Processed by: cddbd v1.4PL0 Copyright (c) Steve Scherf et al.
# Submitted via: audiograbber 1.81.01
#
DISCID=a2080b0c
DTITLE=Edoardo Vianello - I Grandi Successi Originali cd1
DYEAR=1900
DGENRE=pop
TTITLE0=Siamo due esquimesi
TTITLE1=Il capello
TTITLE2=Umilmente ti chiedo perdono
TTITLE3=Cicciona cha cha
TTITLE4=Ma guardatela
TTITLE5=Pinne, fucile è occhiali
TTITLE6=Guarda come dondolo
TTITLE7=Ti amo perchè
TTITLE8=Non esiste più niente
TTITLE9=Hully gully in dieci
TTITLE10=ò mio signore
TTITLE11=I watuss1
EXTD=
EXTT0=
EXTT1=
EXTT2=
EXTT3=
EXTT4=
EXTT5=
EXTT6=
EXTT7=
EXTT8=
EXTT9=
EXTT10=
EXTT11=
PLAYORDER=
